<svg xmlns="http://www.w3.org/2000/svg" viewBox="0 0 313.19 145.51"><defs><style>.cls-1,.cls-2{fill:#2c2a2a;}.cls-1,.cls-3,.cls-4{stroke:#2c2a2a;stroke-miterlimit:10;}.cls-3,.cls-4{fill:none;}.cls-4{stroke-linecap:round;stroke-width:1.98px;}</style></defs><g id="Calque_2" data-name="Calque 2"><g id="Calque_1-2" data-name="Calque 1"><path class="cls-1" d="M122.18,121.87q-7.5-6.15-7.5-16.61,0-8.43,4-14t13.91-8.43q10-2.86,27.67-2.87h2.53q0-14.67-4.05-20.83t-12-6.16a17.32,17.32,0,0,0-10.79,3.21q-4.22,3.21-6.07,12h-9.28a53.63,53.63,0,0,1,.76-9.78,14.39,14.39,0,0,1,3.46-7.08q5.22-5.91,25.3-5.91,16.86,0,25.72,8.86t8.85,26.56v45.54H170.34l-5.91-7.59h-.84a18.78,18.78,0,0,1-4.72,4.73Q153.13,128,143.35,128,129.69,128,122.18,121.87Zm32.3-3.71a20.37,20.37,0,0,0,4.89-4,16.45,16.45,0,0,0,3.38-5.57V87.55h-2.53q-12,0-17.38,4.3t-5.39,13.41q0,6.92,2.86,10.63a9.65,9.65,0,0,0,8.1,3.71A12.09,12.09,0,0,0,154.48,118.16Z"/><path class="cls-1" d="M201.87,37q0-8.6-2.36-12.73t-9.44-4.14h-1.69V15h20.24q6.07,0,9.28,2a11.18,11.18,0,0,1,4.55,6.66Q223.8,28.35,223.8,37v89.39H201.87Z"/><path class="cls-1" d="M256.86,122.63a36.45,36.45,0,0,1-13.58-14.76,45.69,45.69,0,0,1-4.81-21.16q0-13.15,4.81-22.44a33.49,33.49,0,0,1,13.24-14.08,37.86,37.86,0,0,1,19.06-4.81,41.66,41.66,0,0,1,18.89,4.22,32.94,32.94,0,0,1,13.32,11.89,32.1,32.1,0,0,1,4.9,17.63c0,2.13-.12,4.55-.34,7.25L312,89.74H261.24q0,16,4.89,23.36a15.54,15.54,0,0,0,13.67,7.34q8.08,0,13.57-3.63a43.39,43.39,0,0,0,10.55-10.37l5.22,3.88A44.38,44.38,0,0,1,296.92,123Q289.57,128,277.27,128A38.12,38.12,0,0,1,256.86,122.63Zm33.06-40.48q0-15.86-3.71-22.51T275.58,53q-6.42,0-10.37,6.83t-4,22.35Z"/><path class="cls-2" d="M122.18,121.87q-7.5-6.15-7.5-16.61,0-8.43,4-14t13.91-8.43q10-2.86,27.67-2.87h2.53q0-14.67-4.05-20.83t-12-6.16a17.32,17.32,0,0,0-10.79,3.21q-4.22,3.21-6.07,12h-9.28a53.63,53.63,0,0,1,.76-9.78,14.39,14.39,0,0,1,3.46-7.08q5.22-5.91,25.3-5.91,16.86,0,25.72,8.86t8.85,26.56v45.54H170.34l-5.91-7.59h-.84a18.78,18.78,0,0,1-4.72,4.73Q153.13,128,143.35,128,129.69,128,122.18,121.87Zm32.3-3.71a20.37,20.37,0,0,0,4.89-4,16.45,16.45,0,0,0,3.38-5.57V87.55h-2.53q-12,0-17.38,4.3t-5.39,13.41q0,6.92,2.86,10.63a9.65,9.65,0,0,0,8.1,3.71A12.09,12.09,0,0,0,154.48,118.16Z"/><path class="cls-2" d="M201.87,37q0-8.6-2.36-12.73t-9.44-4.14h-1.69V15h20.24q6.07,0,9.28,2a11.18,11.18,0,0,1,4.55,6.66Q223.8,28.35,223.8,37v89.39H201.87Z"/><path class="cls-2" d="M256.86,122.63a36.45,36.45,0,0,1-13.58-14.76,45.69,45.69,0,0,1-4.81-21.16q0-13.15,4.81-22.44a33.49,33.49,0,0,1,13.24-14.08,37.86,37.86,0,0,1,19.06-4.81,41.66,41.66,0,0,1,18.89,4.22,32.94,32.94,0,0,1,13.32,11.89,32.1,32.1,0,0,1,4.9,17.63c0,2.13-.12,4.55-.34,7.25L312,89.74H261.24q0,16,4.89,23.36a15.54,15.54,0,0,0,13.67,7.34q8.08,0,13.57-3.63a43.39,43.39,0,0,0,10.55-10.37l5.22,3.88A44.38,44.38,0,0,1,296.92,123Q289.57,128,277.27,128A38.12,38.12,0,0,1,256.86,122.63Zm33.06-40.48q0-15.86-3.71-22.51T275.58,53q-6.42,0-10.37,6.83t-4,22.35Z"/><path class="cls-3" d="M122.18,121.87q-7.5-6.15-7.5-16.61,0-8.43,4-14t13.91-8.43q10-2.86,27.67-2.87h2.53q0-14.67-4.05-20.83t-12-6.16a17.32,17.32,0,0,0-10.79,3.21q-4.22,3.21-6.07,12h-9.28a53.63,53.63,0,0,1,.76-9.78,14.39,14.39,0,0,1,3.46-7.08q5.22-5.91,25.3-5.91,16.86,0,25.72,8.86t8.85,26.56v45.54H170.34l-5.91-7.59h-.84a18.78,18.78,0,0,1-4.72,4.73Q153.13,128,143.35,128,129.69,128,122.18,121.87Zm32.3-3.71a20.37,20.37,0,0,0,4.89-4,16.45,16.45,0,0,0,3.38-5.57V87.55h-2.53q-12,0-17.38,4.3t-5.39,13.41q0,6.92,2.86,10.63a9.65,9.65,0,0,0,8.1,3.71A12.09,12.09,0,0,0,154.48,118.16Z"/><path class="cls-3" d="M201.87,37q0-8.6-2.36-12.73t-9.44-4.14h-1.69V15h20.24q6.07,0,9.28,2a11.18,11.18,0,0,1,4.55,6.66Q223.8,28.35,223.8,37v89.39H201.87Z"/><path class="cls-3" d="M256.86,122.63a36.45,36.45,0,0,1-13.58-14.76,45.69,45.69,0,0,1-4.81-21.16q0-13.15,4.81-22.44a33.49,33.49,0,0,1,13.24-14.08,37.86,37.86,0,0,1,19.06-4.81,41.66,41.66,0,0,1,18.89,4.22,32.94,32.94,0,0,1,13.32,11.89,32.1,32.1,0,0,1,4.9,17.63c0,2.13-.12,4.55-.34,7.25L312,89.74H261.24q0,16,4.89,23.36a15.54,15.54,0,0,0,13.67,7.34q8.08,0,13.57-3.63a43.39,43.39,0,0,0,10.55-10.37l5.22,3.88A44.38,44.38,0,0,1,296.92,123Q289.57,128,277.27,128A38.12,38.12,0,0,1,256.86,122.63Zm33.06-40.48q0-15.86-3.71-22.51T275.58,53q-6.42,0-10.37,6.83t-4,22.35Z"/><path class="cls-1" d="M51.06,112.7l-20.22-27V124.5H15.67v-91q0-8.59-2.36-12.72T3.87,16.64H.5V13.27H15.67q6.23,0,9.35,1.6a9.33,9.33,0,0,1,4.47,5.82c.89,2.81,1.35,7.07,1.35,12.8V83.21l21.06-27a33.5,33.5,0,0,1,9.27-8.18q4.89-2.77,12.64-2.78h5a24.07,24.07,0,0,1,3.51.46,23,23,0,0,1,3.84,1.16,14.27,14.27,0,0,1-3.47,1.58,14,14,0,0,1-3.58.58c-1,.14-2.42.37-4.07.76a30.57,30.57,0,0,0-5,1.53,18.64,18.64,0,0,0-7.25,5.73L44.32,80.68l21.06,27a48.66,48.66,0,0,0,9.19,9.61,21.23,21.23,0,0,0,9.35,4c1.19.22,2.47.41,3.81.57,1.17.13,2.28.21,3.34.27a21,21,0,0,1-3.52,1.74,20.32,20.32,0,0,1-3.47,1,33.82,33.82,0,0,1-4.12.91,28.32,28.32,0,0,1-4.47.42Q61.17,126.18,51.06,112.7Z"/><path class="cls-2" d="M35.2,77.07A49.14,49.14,0,0,1,46.33,33.54c11.32-12.66,28.23-16.63,44-20.68,9.3-2.38,18.62-4.95,27.21-9.33l-2.82-2.18-10,26.53c-3.16,8.41-6.17,16.89-9.54,25.22-2.93,7.26-6.53,14.5-12.18,20a40.59,40.59,0,0,1-40.6,9.35c-2.36-.79-3.37,2.93-1,3.71,14,4.68,29.89,1.46,41.33-7.67,6.35-5.06,10.73-12,14-19.36,3.81-8.41,6.78-17.21,10-25.84L118.45,2.38C119.08.69,117-.49,115.62.2,100,8.16,82.21,9.68,66,16c-8,3.14-15.5,7.45-21.44,13.7a53.36,53.36,0,0,0-12.19,21,52,52,0,0,0-.93,27.33c.59,2.41,4.3,1.39,3.72-1Z"/><path class="cls-2" d="M56.55,88.31a42,42,0,0,1,25.34,6c5.19,3.23,8.82,8,12.59,12.68,2.75,3.45,5.08,7.42,8.3,10.46,4.91,4.61,11.44,7,18,8.26l-.85-3.22c-7.23,6.38-15.1,12.58-24.33,15.88a57,57,0,0,1-24.38,3c-.58,0-1.15-.12-1.73-.19-.1,0-.39-.06.08,0l-.33,0-.62-.09c-.41-.07-.81-.15-1.21-.24a50.71,50.71,0,0,1-10-3.34c-7.48-3.39-14.54-8.43-19-15.44-5.91-9.25-6-20.66-1.6-30.57a2,2,0,0,0-.69-2.63,1.94,1.94,0,0,0-2.64.69c-4.27,9.74-5.06,20.69-.55,30.52,3.82,8.31,11.06,14.7,19,19A50.4,50.4,0,0,0,68.64,145a60,60,0,0,0,23.75-1.56c11.6-3.14,21.32-10.33,30.22-18.17a1.94,1.94,0,0,0-.85-3.22c-5.65-1.09-11.46-3-15.82-6.88-3.28-2.93-5.39-6.62-8.21-10.18-3.84-4.87-7.59-9.74-12.79-13.24a44,44,0,0,0-16.4-6.52,44.69,44.69,0,0,0-12-.73c-2.46.21-2.48,4.06,0,3.85Z"/><path class="cls-2" d="M35.58,79.68l-.74-2.13a1.56,1.56,0,0,0-.68-.89,1.16,1.16,0,0,0-.56-.18,1.12,1.12,0,0,0-.6,0,1.51,1.51,0,0,0-.9.69A1.49,1.49,0,0,0,32,78.35l.74,2.12a1.52,1.52,0,0,0,.69.9,1.09,1.09,0,0,0,.55.18,1.22,1.22,0,0,0,.6,0,1.55,1.55,0,0,0,.9-.69,1.49,1.49,0,0,0,.15-1.15Z"/><path class="cls-4" d="M47.33,59.1c-.94-5.13-.54-11.28,2.23-16"/><path class="cls-4" d="M48.35,73.73A33.72,33.72,0,0,0,68.8,67.47"/><path class="cls-4" d="M57.06,49c.9-3.3,2.95-7.66,5.71-9.67"/><path class="cls-4" d="M58.57,61.3a35,35,0,0,0,12.87-4"/><path class="cls-4" d="M42.23,98.14q-.42,3.66-.5,7.34a23.78,23.78,0,0,0,.29,5c.71,3.67,2.85,6.87,4.95,10"/><path class="cls-4" d="M57.51,98.44a15.53,15.53,0,0,1,12.35,4.22"/><path class="cls-4" d="M54.6,114.39a20.1,20.1,0,0,0,.26,7.61,19.81,19.81,0,0,0,2.07,5.34"/><path class="cls-4" d="M66.65,110.29a16.91,16.91,0,0,1,6.11,1.13,16.7,16.7,0,0,1,4.14,2.34"/><path class="cls-2" d="M66.75,122.83a11.43,11.43,0,0,0,6.93,7.52.85.85,0,1,0,.46-1.64,9.66,9.66,0,0,1-5.75-6.33.85.85,0,0,0-1.64.45Z"/></g></g></svg>