<svg xmlns="http://www.w3.org/2000/svg" xmlns:xlink="http://www.w3.org/1999/xlink" viewBox="0 0 44.98 50.21"><defs><style>.cls-1{fill:none;}.cls-2{fill:#5e9415;}.cls-3{fill:#79a837;}.cls-4{clip-path:url(#clip-path);}.cls-5{fill:#719e34;}.cls-6{fill:#548513;}</style><clipPath id="clip-path" transform="translate(-3.64 -3.37)"><rect class="cls-1" x="4.2" y="4.03" width="46.98" height="48.6" transform="translate(-4.89 5.79) rotate(-10.98)"/></clipPath></defs><g id="Calque_2" data-name="Calque 2"><g id="Utilisés"><g id="Brocoli"><path class="cls-2" d="M17.81,43.38c3.88,4,7.91,2.83,7.91,2.83a6,6,0,0,0-1.43-1.38,8.92,8.92,0,0,0-6.48-1.45Zm0,0" transform="translate(-3.64 -3.37)"/><path class="cls-3" d="M32.93,25.35,30.3,28.78,17.14,37.44l1.94,1a8.41,8.41,0,0,1,4.26,5.7l.47,2.67,1.3,6.74,14.28-2.77-3.7-19a4.71,4.71,0,0,1,1.21-4.14l.66-.7Zm-3,11.78a1.71,1.71,0,0,1-.26,1.3,1.72,1.72,0,0,1-2.4.46,1.68,1.68,0,0,1-.73-1.1l-.31-1.57a9.5,9.5,0,0,0,3-2.62Zm0,0" transform="translate(-3.64 -3.37)"/><g class="cls-4"><path class="cls-5" d="M36.9,27.64l.66-.7-4.63-1.59L30.3,28.78,17.14,37.44l1.94,1a8.42,8.42,0,0,1,1.63,1.15L22,39.38A2,2,0,0,1,24.32,41a2,2,0,0,0,2.36,1.6l4.76-.93A2,2,0,0,0,33,39.29L32,34.1a2,2,0,0,1,1.13-2.22l2.45-1.14a4.76,4.76,0,0,1,1.29-3.1Zm-7,9.49a1.71,1.71,0,0,1-.26,1.3,1.72,1.72,0,0,1-2.4.46,1.68,1.68,0,0,1-.73-1.1l-.31-1.57a9.5,9.5,0,0,0,3-2.62Zm0,0" transform="translate(-3.64 -3.37)"/><path class="cls-2" d="M43.92,8.79a7.1,7.1,0,0,0-4.23.07c0-2.21-1.88-4.41-4.69-5.2s-5.43,0-6.61,1.82A7.72,7.72,0,0,0,23,4.62c-3.67.71-6.21,3.76-6,7l-.05,0a7.81,7.81,0,0,0-5.07-.69C8,11.66,5.31,15.12,6,18.62a6,6,0,0,0,2.42,3.73H8.36a5,5,0,0,0-1.84.41,4.81,4.81,0,0,0-2.71,3.16,4.84,4.84,0,0,0,8.25,4.54,7,7,0,0,0,5.22,7,11.94,11.94,0,0,0,5.22.12c5.07-1,8.6-4.79,7.88-8.5-.46-2.41-2.6-4.19-5.44-4.87l3-2.46,3.48,1,7.83,2.19a10.06,10.06,0,0,0,6.58-7.28c.36-1.34,2.25-1.46,2.6-2.71.7-2.49-1.34-5.24-4.56-6.14Zm0,0" transform="translate(-3.64 -3.37)"/></g><path class="cls-5" d="M35.25,48.32a10.76,10.76,0,0,0,3-1.84l.28-.25-.94-4.83a12.52,12.52,0,0,0-2.31,6.92Zm0,0" transform="translate(-3.64 -3.37)"/><path class="cls-2" d="M42.66,36.31c-7.15,4-6.88,10.2-6.88,10.2A8.91,8.91,0,0,0,38.25,45a13,13,0,0,0,4.41-8.66Zm0,0" transform="translate(-3.64 -3.37)"/><g class="cls-4"><path class="cls-6" d="M38.2,11.53c-3.79.73-6.44,3.68-6.18,6.71a6.57,6.57,0,0,0-2.35,4l1.8.51h0a4.94,4.94,0,0,1,1.92-3.94c-.22-2.46,1.93-4.85,5-5.44,3.24-.63,6.28,1,6.78,3.57a2.23,2.23,0,0,1,0,.36,5,5,0,0,1,.61.41.25.25,0,0,1,0-.07,4,4,0,0,0-1-4.53,7.89,7.89,0,0,0-6.7-1.57Zm0,0" transform="translate(-3.64 -3.37)"/><path class="cls-6" d="M12.29,28.92A6.47,6.47,0,0,1,9.1,30.4a4.84,4.84,0,0,1-5.46-3.07,4.84,4.84,0,0,0,8.42,3.12Zm0,0" transform="translate(-3.64 -3.37)"/></g><path class="cls-2" d="M7.25,20.89a4.46,4.46,0,0,1,.81-.09h0a6.06,6.06,0,0,1-2.21-3A5.56,5.56,0,0,0,7,20.94l.23-.05Zm0,0" transform="translate(-3.64 -3.37)"/><path class="cls-2" d="M32.29,18.45a6.46,6.46,0,1,1-7.58-5.11,6.46,6.46,0,0,1,7.58,5.11Zm0,0" transform="translate(-3.64 -3.37)"/><path class="cls-6" d="M24.71,13.34a6.47,6.47,0,0,1,7.37,4.33A6.46,6.46,0,1,0,19.5,20.11a6.47,6.47,0,0,1,5.21-6.77Zm0,0" transform="translate(-3.64 -3.37)"/><path class="cls-6" d="M11.9,10.89a7,7,0,0,0-.79.2c3.64-.34,6.93,1.8,7.57,5.07s-1.62,6.48-5.12,7.53a7.67,7.67,0,0,0,.8-.11c3.94-.77,6.58-4.23,5.9-7.73s-4.42-5.72-8.36-5Zm0,0" transform="translate(-3.64 -3.37)"/><path class="cls-6" d="M29.62,13.21a4.84,4.84,0,0,1,8-4.53A4.85,4.85,0,0,0,30.32,7a4.84,4.84,0,0,0-.26,7.48,5.09,5.09,0,0,1-.44-1.26Zm0,0" transform="translate(-3.64 -3.37)"/><path class="cls-6" d="M28.52,25.61a6.13,6.13,0,0,0,3.27-3.18V21s-2.71,2.24-4.3,2.55-4.42-1.61-6-1.31c-1.32.26-.72,1.46.28,1.64s2.31-.38,3.36.13Zm0,0" transform="translate(-3.64 -3.37)"/><path class="cls-6" d="M22.28,9.29c0,.22-.28.46-.72.55s-.82,0-.87-.24.28-.47.72-.55.83,0,.87.24Zm0,0" transform="translate(-3.64 -3.37)"/><path class="cls-6" d="M8.24,26c0,.22-.45.5-1.11.63s-1.22.05-1.26-.17S6.32,26,7,25.83s1.22,0,1.26.17Zm0,0" transform="translate(-3.64 -3.37)"/><path class="cls-6" d="M10.14,27.28c0,.21-.28.46-.72.55s-.83,0-.87-.25.28-.46.72-.55.83,0,.87.25Zm0,0" transform="translate(-3.64 -3.37)"/><path class="cls-6" d="M14.3,19.06c0,.22-.27.47-.71.55s-.83,0-.87-.24.28-.46.71-.55.83,0,.87.24Zm0,0" transform="translate(-3.64 -3.37)"/><path class="cls-6" d="M23.56,7.39c0,.22-.28.47-.72.55S22,7.92,22,7.7s.28-.46.72-.55.83,0,.87.24Zm0,0" transform="translate(-3.64 -3.37)"/><path class="cls-6" d="M23.44,28c0,.22-.28.46-.72.55s-.82,0-.87-.25.28-.46.72-.55.83,0,.87.25Zm0,0" transform="translate(-3.64 -3.37)"/><path class="cls-6" d="M26.28,29.9c0,.22-.28.47-.72.55s-.82,0-.87-.24.28-.46.72-.55.83,0,.87.24Zm0,0" transform="translate(-3.64 -3.37)"/><path class="cls-6" d="M22.2,36c-4.23.82-8.17-.58-9.8-3.21a7,7,0,0,0,4.81,4.62l.22,0a12,12,0,0,0,5.07.09c5.07-1,8.61-4.79,7.89-8.5a5.92,5.92,0,0,0-.22-.75c.11,3.44-3.26,6.79-8,7.7Zm0,0" transform="translate(-3.64 -3.37)"/><path class="cls-6" d="M36.16,9.8c0,.17-.26.37-.64.44s-.72,0-.75-.17.25-.37.63-.45.72,0,.76.18Zm0,0" transform="translate(-3.64 -3.37)"/><path class="cls-6" d="M25.51,14.43a.46.46,0,0,1-.42.48.46.46,0,0,1-.58-.29.53.53,0,0,1,1-.19Zm0,0" transform="translate(-3.64 -3.37)"/><path class="cls-6" d="M28.26,15c0,.13-.26.29-.64.37s-.71,0-.74-.1.27-.29.65-.37.7,0,.73.1Zm0,0" transform="translate(-3.64 -3.37)"/><path class="cls-6" d="M13.11,12.9c0,.1-.24.24-.58.3s-.63,0-.65-.06.24-.24.58-.3.63,0,.65.06Zm0,0" transform="translate(-3.64 -3.37)"/><path class="cls-6" d="M17.23,15.12c0,.18-.2.37-.53.43s-.61,0-.65-.2.2-.37.53-.43.61,0,.65.2Zm0,0" transform="translate(-3.64 -3.37)"/><path class="cls-6" d="M45.25,10.8c0,.11-.24.25-.58.31S44,11.15,44,11s.24-.25.58-.31.64,0,.66.07Zm0,0" transform="translate(-3.64 -3.37)"/><path class="cls-6" d="M16,31.55a.45.45,0,0,1-.36.53.45.45,0,0,1-.17-.89.45.45,0,0,1,.53.36Zm0,0" transform="translate(-3.64 -3.37)"/><path class="cls-6" d="M15.68,32.75a.36.36,0,0,1-.29.43.37.37,0,1,1-.14-.72.36.36,0,0,1,.43.29Zm0,0" transform="translate(-3.64 -3.37)"/><path class="cls-2" d="M38.42,13.36c-3.07.59-5.22,3-5,5.44a4.69,4.69,0,0,0-1.87,4.32c.42,2.17,2.84,3.62,5.91,3.82l0,.06.05-.06-.05.06a5,5,0,0,0,8.78-3.4,4.29,4.29,0,0,0,1.11-3.55,4.17,4.17,0,0,0-2.15-2.76,2.23,2.23,0,0,0,0-.36c-.5-2.6-3.54-4.2-6.78-3.57Zm0,0" transform="translate(-3.64 -3.37)"/><path class="cls-6" d="M45.87,21.44a5,5,0,0,1-8.78,3.4L37,24.78c-2.55-.17-4.64-1.19-5.53-2.78a3.5,3.5,0,0,0,0,1.12c.42,2.17,2.84,3.62,5.91,3.82l0,.06a5,5,0,0,0,8.78-3.4,4.29,4.29,0,0,0,1.11-3.55A3.33,3.33,0,0,0,47,19a4.8,4.8,0,0,1-1.14,2.44Zm0,0" transform="translate(-3.64 -3.37)"/><path class="cls-6" d="M39.5,17.47c0,.21-.28.46-.72.55s-.82,0-.87-.25.28-.46.72-.55.83,0,.87.25Zm0,0" transform="translate(-3.64 -3.37)"/><path class="cls-6" d="M42.82,17.64c0,.22-.27.47-.71.55s-.83,0-.87-.24.28-.46.71-.55.83,0,.87.24Zm0,0" transform="translate(-3.64 -3.37)"/><path class="cls-5" d="M36.89,37.94a.8.8,0,0,0-.32.19L33.1,41.74,31,42.15a.8.8,0,1,0,.3,1.58l2.35-.45a.92.92,0,0,0,.43-.24l3.15-3.28Zm0,0" transform="translate(-3.64 -3.37)"/><path class="cls-5" d="M28.43,49.36l1.42-.87a.87.87,0,0,0,.37-.49.85.85,0,0,0-.1-.62A.82.82,0,0,0,29,47.11l-1.3.79-3.56.69.3,1.59,3.71-.72a.79.79,0,0,0,.27-.1Zm0,0" transform="translate(-3.64 -3.37)"/></g></g></g></svg>