<svg xmlns="http://www.w3.org/2000/svg" viewBox="0 0 47.65 47.65"><defs><style>.cls-1{fill:#548513;}.cls-2{fill:#ef7900;}.cls-3{fill:#5e9415;}.cls-4{fill:#db6f00;}</style></defs><g id="Calque_2" data-name="Calque 2"><g id="Utilisés"><g id="Carrot"><path class="cls-1" d="M39.24,0l-15,21.49L41.58,2.56Zm0,0" transform="translate(0 0)"/><path class="cls-1" d="M26.16,23.36,47.65,5.61,44.72,3Zm0,0" transform="translate(0 0)"/><path class="cls-2" d="M26.41,23.61l-.24-.25L24.3,21.49l-.24-.24a4.67,4.67,0,0,0-6.82.22l-.49.57c-2.21,2.53-5.06,5.9-7.71,9.34C5.5,36,2.34,40.61,1.61,43.47A15.59,15.59,0,0,1,.47,46.71L0,47.65l1-.47A16.75,16.75,0,0,1,4.18,46c3.77-1,10.67-6.13,16.38-10.83,2.11-1.74,4.06-3.42,5.63-4.79a4.66,4.66,0,0,0,.22-6.81Zm0,0" transform="translate(0 0)"/><path class="cls-3" d="M44.72,3l1.06-1.16L43.92,0,41.58,2.56,24.29,21.49l1.87,1.87Zm0,0" transform="translate(0 0)"/><path class="cls-4" d="M26.19,28.55c-1.57,1.37-3.52,3.05-5.63,4.79C14.85,38,8,43.21,4.18,44.17a17.26,17.26,0,0,0-3.1,1.08,11.56,11.56,0,0,1-.61,1.46L0,47.65l1-.47A16.75,16.75,0,0,1,4.18,46c3.77-1,10.67-6.13,16.38-10.83,2.11-1.74,4.06-3.42,5.63-4.79A4.65,4.65,0,0,0,27.67,26a4.67,4.67,0,0,1-1.48,2.57Zm0,0" transform="translate(0 0)"/><path class="cls-4" d="M22.31,23.5a.59.59,0,1,1-.59-.58.58.58,0,0,1,.59.58Zm0,0" transform="translate(0 0)"/><path class="cls-4" d="M16.1,27.49a.4.4,0,0,1-.39.39.39.39,0,0,1-.39-.39.38.38,0,0,1,.39-.39.39.39,0,0,1,.39.39Zm0,0" transform="translate(0 0)"/><path class="cls-4" d="M15.09,34.81a.39.39,0,1,1-.39-.39.39.39,0,0,1,.39.39Zm0,0" transform="translate(0 0)"/><path class="cls-4" d="M7,37.77a.36.36,0,1,1-.36-.36.36.36,0,0,1,.36.36Zm0,0" transform="translate(0 0)"/><path class="cls-4" d="M7,40.68a.71.71,0,0,1-.71.71A.71.71,0,1,1,7,40.68Zm0,0" transform="translate(0 0)"/><path class="cls-4" d="M24.68,27.29a.19.19,0,0,1-.19.2.2.2,0,0,1-.2-.2.19.19,0,0,1,.2-.19.18.18,0,0,1,.19.19Zm0,0" transform="translate(0 0)"/><path class="cls-4" d="M16.12,22.75A34.41,34.41,0,0,0,21,27.85a1,1,0,0,0,.7.18A.93.93,0,0,0,22.45,27a.92.92,0,0,0-.37-.62,35.52,35.52,0,0,1-4.61-4.88.57.57,0,0,0-.11-.11,1.42,1.42,0,0,0-.13.12l-.49.56Zm0,0" transform="translate(0 0)"/><path class="cls-4" d="M21.26,34.62a.76.76,0,0,0-.2-.2c-2.31-1.48-4.93-5.56-4.95-5.61a.94.94,0,0,0-1.58,1c.11.17,2.69,4.2,5.27,6l.76-.61.7-.59Zm0,0" transform="translate(0 0)"/><path class="cls-4" d="M12,40.26a.94.94,0,0,1-.37-.07,7.28,7.28,0,0,1-2.17-2.25A.93.93,0,1,1,11,36.87a8.21,8.21,0,0,0,1.39,1.61.94.94,0,0,1,.5.5A.94.94,0,0,1,12,40.26Zm0,0" transform="translate(0 0)"/><path class="cls-4" d="M8.4,32.2a10.32,10.32,0,0,0,1.87,2.25.94.94,0,0,0,1.3-.07.93.93,0,0,0,0-1.3A6.93,6.93,0,0,1,9.9,31a.92.92,0,0,0-.31-.39c-.19.24-.38.48-.56.73l-.63.82Zm0,0" transform="translate(0 0)"/></g></g></g></svg>