<svg xmlns="http://www.w3.org/2000/svg" xmlns:xlink="http://www.w3.org/1999/xlink" viewBox="0 0 46.25 47.68"><defs><style>.cls-1{fill:none;}.cls-2{fill:#cad993;}.cls-3{fill:#e0e8c3;}.cls-4{clip-path:url(#clip-path);}.cls-5{fill:#55870e;}.cls-6{fill:#52820d;}.cls-7{fill:#fff;}.cls-8{fill:#c6d982;}.cls-9{fill:#eaeddf;}.cls-10{fill:#3b5e0a;}.cls-11{fill:#4c780c;}</style><clipPath id="clip-path" transform="translate(-0.07 0)"><rect class="cls-1" width="46.44" height="47.79"/></clipPath></defs><g id="Calque_2" data-name="Calque 2"><g id="Utilisés"><g id="Cucumber"><path class="cls-2" d="M40,35.54a6.46,6.46,0,1,1-6.46-6.46A6.46,6.46,0,0,1,40,35.54Zm0,0" transform="translate(-0.07 0)"/><path class="cls-3" d="M36.75,35.54a3.23,3.23,0,1,1-3.23-3.23,3.23,3.23,0,0,1,3.23,3.23Zm0,0" transform="translate(-0.07 0)"/><g class="cls-4"><path class="cls-5" d="M44.09,23.32A6.47,6.47,0,0,0,35,24l-6.34,7.33a6.47,6.47,0,0,1,9.78,8.46l6.34-7.33a6.49,6.49,0,0,0-.66-9.12Zm0,0" transform="translate(-0.07 0)"/><path class="cls-5" d="M38.9,7.46a6.73,6.73,0,0,0-9.29-.69L2.89,30.05A7.77,7.77,0,1,0,13.27,41.61L38.59,16.78a6.72,6.72,0,0,0,.31-9.32Zm0,0" transform="translate(-0.07 0)"/><path class="cls-6" d="M38.59,14.78,13.27,39.61a7.78,7.78,0,0,1-11.21-.37A7.87,7.87,0,0,1,.14,35.07a7.77,7.77,0,0,0,13.13,6.54L38.59,16.78a6.72,6.72,0,0,0,2-5.84,6.74,6.74,0,0,1-2,3.84Zm0,0" transform="translate(-0.07 0)"/></g><path class="cls-6" d="M36.63,24.85a6.46,6.46,0,0,1,7-1.87A6.47,6.47,0,0,0,35,24l-6.34,7.33A6.43,6.43,0,0,1,33,29.11Zm0,0" transform="translate(-0.07 0)"/><path class="cls-7" d="M32.18,33.55c.14.07.7.48.63.62s-.74-.05-.88-.12a.27.27,0,0,1-.14-.38.28.28,0,0,1,.39-.12Zm0,0" transform="translate(-0.07 0)"/><path class="cls-7" d="M33.05,32.86c0,.15.14.82,0,.87s-.48-.55-.53-.69a.28.28,0,0,1,.52-.18Zm0,0" transform="translate(-0.07 0)"/><path class="cls-7" d="M34,33.38c-.09.13-.59.6-.71.51s.17-.71.26-.83a.28.28,0,0,1,.45.32Zm0,0" transform="translate(-0.07 0)"/><path class="cls-7" d="M36.06,35.43c-.14.06-.83.17-.88,0s.55-.5.69-.55a.28.28,0,0,1,.37.16.27.27,0,0,1-.18.36Zm0,0" transform="translate(-0.07 0)"/><path class="cls-7" d="M36,36.53c-.13-.06-.69-.46-.62-.6s.72,0,.86.11a.27.27,0,1,1-.24.49Zm0,0" transform="translate(-0.07 0)"/><path class="cls-7" d="M34.89,36.88c0-.15,0-.83.13-.86s.39.62.41.77a.27.27,0,1,1-.54.09Zm0,0" transform="translate(-0.07 0)"/><path class="cls-7" d="M32.43,37.82c0-.15.14-.83.29-.83s.27.69.27.84a.28.28,0,0,1-.56,0Zm0,0" transform="translate(-0.07 0)"/><path class="cls-7" d="M31.44,37.32c.11-.1.68-.48.79-.37s-.3.67-.4.77a.28.28,0,1,1-.38-.4Zm0,0" transform="translate(-0.07 0)"/><path class="cls-7" d="M31.5,36.21c.15,0,.79.27.76.42s-.71.15-.86.12a.27.27,0,1,1,.1-.54Zm0,0" transform="translate(-0.07 0)"/><g class="cls-4"><path class="cls-8" d="M33.52,29.08A6.46,6.46,0,1,0,40,35.54a6.46,6.46,0,0,0-6.46-6.46Zm0,11.3a4.84,4.84,0,1,1,4.85-4.84,4.85,4.85,0,0,1-4.85,4.84Zm0,0" transform="translate(-0.07 0)"/><path class="cls-2" d="M28.46,36.73a6.46,6.46,0,1,1-9.14-.15,6.46,6.46,0,0,1,9.14.15Zm0,0" transform="translate(-0.07 0)"/></g><path class="cls-3" d="M27.06,41.19A3.23,3.23,0,1,1,23.83,38a3.23,3.23,0,0,1,3.23,3.23Zm0,0" transform="translate(-0.07 0)"/><path class="cls-7" d="M25,39c0,.15-.31.79-.46.75s-.12-.72-.08-.88A.28.28,0,1,1,25,39Zm0,0" transform="translate(-0.07 0)"/><path class="cls-7" d="M25.87,39.73c-.13.08-.77.33-.85.2s.43-.59.56-.67a.28.28,0,0,1,.39.08.29.29,0,0,1-.1.39Zm0,0" transform="translate(-0.07 0)"/><path class="cls-7" d="M25.58,40.81c-.14-.06-.71-.43-.65-.57s.73,0,.87.06a.28.28,0,0,1-.22.51Zm0,0" transform="translate(-0.07 0)"/><path class="cls-7" d="M25.11,43.24c-.12-.08-.57-.52-.48-.63s.65.14.76.22a.25.25,0,1,1-.28.41Zm0,0" transform="translate(-0.07 0)"/><path class="cls-7" d="M24.22,43.87c0-.15,0-.84.13-.86s.39.61.42.76a.28.28,0,0,1-.55.1Zm0,0" transform="translate(-0.07 0)"/><path class="cls-7" d="M23.42,43.15c.1-.1.6-.46.7-.36s-.24.61-.34.71a.25.25,0,0,1-.36-.35Zm0,0" transform="translate(-0.07 0)"/><path class="cls-7" d="M21.57,41.49c.11-.1.72-.44.82-.32s-.35.65-.46.75a.28.28,0,0,1-.4,0,.28.28,0,0,1,0-.4Zm0,0" transform="translate(-0.07 0)"/><path class="cls-7" d="M21.29,40.42c.15,0,.81.2.8.35s-.7.21-.85.2a.28.28,0,1,1,.05-.55Zm0,0" transform="translate(-0.07 0)"/><g class="cls-4"><path class="cls-7" d="M22.17,39.73c.07.13.31.77.17.85s-.57-.44-.65-.58a.27.27,0,0,1,.1-.38.28.28,0,0,1,.38.11Zm0,0" transform="translate(-0.07 0)"/><path class="cls-8" d="M30.1,39.62a6.46,6.46,0,1,0-4.7,7.84,6.47,6.47,0,0,0,4.7-7.84ZM25,45.89A4.84,4.84,0,1,1,28.53,40,4.85,4.85,0,0,1,25,45.89Zm0,0" transform="translate(-0.07 0)"/><path class="cls-5" d="M31.71,39.62a6.47,6.47,0,0,0-7.08-4.84,6.47,6.47,0,0,1,.77,12.68,6.75,6.75,0,0,1-.76.14,6.45,6.45,0,0,0,7.07-8Zm0,0" transform="translate(-0.07 0)"/></g><path class="cls-9" d="M33.52,36.35h-.06L31,36.18a.84.84,0,0,1-.55-.28.75.75,0,0,1-.2-.59.82.82,0,0,1,.86-.75l2,.15,1.35-1.57a.84.84,0,0,1,.55-.28.82.82,0,0,1,.6.19.83.83,0,0,1,.27.56.79.79,0,0,1-.2.59l-1.61,1.87a.85.85,0,0,1-.61.28Zm0,0" transform="translate(-0.07 0)"/><path class="cls-9" d="M34.05,38.77a.81.81,0,0,1-.79-.64l-.53-2.42a.77.77,0,0,1,.11-.61.8.8,0,0,1,.51-.36.8.8,0,0,1,1,.63l.53,2.42a.87.87,0,0,1-.11.61.8.8,0,0,1-.51.35l-.17,0Zm0,0" transform="translate(-0.07 0)"/><path class="cls-10" d="M24.63,17.77a.8.8,0,0,1-.8-.81v-.81a.81.81,0,0,1,1.61,0V17a.81.81,0,0,1-.81.81Zm0,0" transform="translate(-0.07 0)"/><path class="cls-10" d="M23.83,23.42a.8.8,0,0,1-.81-.8v-.81a.81.81,0,1,1,1.61,0v.81a.8.8,0,0,1-.8.8Zm0,0" transform="translate(-0.07 0)"/><path class="cls-10" d="M19,27.46a.81.81,0,0,1-.81-.81v-.8a.81.81,0,0,1,1.62,0v.8a.81.81,0,0,1-.81.81Zm0,0" transform="translate(-0.07 0)"/><path class="cls-10" d="M13.33,27.46a.81.81,0,0,1-.81-.81v-.8a.81.81,0,1,1,1.61,0v.8a.8.8,0,0,1-.8.81Zm0,0" transform="translate(-0.07 0)"/><path class="cls-10" d="M29.48,20.19a.81.81,0,0,1-.81-.81v-.8a.81.81,0,1,1,1.62,0v.8a.81.81,0,0,1-.81.81Zm0,0" transform="translate(-0.07 0)"/><path class="cls-10" d="M10.9,34.73a.8.8,0,0,1-.8-.81v-.8a.81.81,0,1,1,1.61,0v.8a.81.81,0,0,1-.81.81Zm0,0" transform="translate(-0.07 0)"/><path class="cls-10" d="M16.56,34.73a.81.81,0,0,1-.81-.81v-.8a.81.81,0,0,1,1.62,0v.8a.81.81,0,0,1-.81.81Zm0,0" transform="translate(-0.07 0)"/><path class="cls-10" d="M18.17,21a.8.8,0,0,1-.8-.81v-.81a.81.81,0,0,1,1.61,0v.81a.81.81,0,0,1-.81.81Zm0,0" transform="translate(-0.07 0)"/><path class="cls-9" d="M25.75,42.81a.67.67,0,0,1-.31-.07l-1.92-.8a.85.85,0,0,1-.48-.55l-.4-1.62a.81.81,0,1,1,1.57-.39l.3,1.22,1.55.66a.79.79,0,0,1,.48.9.8.8,0,0,1-.79.65Zm0,0" transform="translate(-0.07 0)"/><path class="cls-9" d="M22.51,43.62a.79.79,0,0,1-.72-.47.78.78,0,0,1,.1-.85l1.31-1.62a.81.81,0,1,1,1.26,1l-1.32,1.62a.8.8,0,0,1-.63.3Zm0,0" transform="translate(-0.07 0)"/><g class="cls-4"><path class="cls-11" d="M39.81,8.75a6.54,6.54,0,0,0-2-2.28,1.61,1.61,0,0,0,2,2.28Zm0,0" transform="translate(-0.07 0)"/><path class="cls-10" d="M38.9,8.27a.81.81,0,0,1-.75-.52.79.79,0,0,1,.22-.88L42,3.63A.81.81,0,0,0,42,2.49l-.54-.6a.79.79,0,0,0-.56-.27.78.78,0,0,0-.58.2A.81.81,0,1,1,39.27.62,2.45,2.45,0,0,1,41,0a2.43,2.43,0,0,1,1.67.81l.54.6a2.42,2.42,0,0,1-.18,3.42L39.44,8.06a.76.76,0,0,1-.54.21Zm0,0" transform="translate(-0.07 0)"/></g><path class="cls-11" d="M45.18,24.55a6.3,6.3,0,0,0-2.43-2.12,1.61,1.61,0,0,0,2.43,2.12Zm0,0" transform="translate(-0.07 0)"/><path class="cls-10" d="M44.09,24.13a.81.81,0,0,1-.57-1.38,2.47,2.47,0,0,0,0-3.52l-.08-.08a.8.8,0,0,1,0-1.13.79.79,0,0,1,1.13,0l.08.08A4.12,4.12,0,0,1,45.87,21a4.07,4.07,0,0,1-1.22,2.9.83.83,0,0,1-.56.23Zm0,0" transform="translate(-0.07 0)"/><path class="cls-10" d="M37.56,29.08a.81.81,0,0,1-.81-.81v-.81a.81.81,0,0,1,1.62,0v.81a.81.81,0,0,1-.81.81Zm0,0" transform="translate(-0.07 0)"/><path class="cls-10" d="M42.4,29.88a.8.8,0,0,1-.8-.8v-.81a.81.81,0,1,1,1.61,0v.81a.8.8,0,0,1-.81.8Zm0,0" transform="translate(-0.07 0)"/></g></g></g></svg>