<svg xmlns="http://www.w3.org/2000/svg" xmlns:xlink="http://www.w3.org/1999/xlink" viewBox="0 0 29.11 46.16"><defs><style>.cls-1{fill:none;}.cls-2{clip-path:url(#clip-path);}.cls-3{fill:#80226c;}.cls-4{fill:#751f63;}.cls-5{fill:#548513;}.cls-6{fill:#872472;}.cls-7{fill:#4f7d12;}</style><clipPath id="clip-path" transform="translate(-3.7 -4.35)"><rect class="cls-1" x="-2.55" y="12.98" width="47.65" height="28.4" transform="translate(-11.41 38.28) rotate(-70.7)"/></clipPath></defs><g id="Calque_2" data-name="Calque 2"><g id="Utilisés"><g id="Eggplant"><g class="cls-2"><path class="cls-3" d="M19,14.39l-.05.08a42.28,42.28,0,0,1-6.38,8.26l-5,5.08a13.07,13.07,0,0,0,5,21.53l1.14.39A13.88,13.88,0,0,0,32.05,36.18l-.59-18.25-1.62-3.58-3.28-2.86-6.13.42Zm0,0" transform="translate(-3.7 -4.35)"/></g><path class="cls-4" d="M31.46,17.93l-1.62-3.58-3.28-2.86-6.13.42L19,14.39l-.05.08c-.6,1-1.27,2-2,3l2.43-.31a.84.84,0,0,1,.66.21.82.82,0,0,1,.25.64l-.2,3.41a.84.84,0,0,0,.38.74.82.82,0,0,0,.83,0l5.76-3.26a.85.85,0,0,1,.83,0l3.69,2.32Zm0,0" transform="translate(-3.7 -4.35)"/><g class="cls-2"><path class="cls-5" d="M32.81,20.52l-.17-2.15a9,9,0,0,0-2.86-5.84A2.86,2.86,0,0,1,29,9.46l1.37-3.92L27.31,4.48,26,8.29a2.9,2.9,0,0,1-2.64,1.91,8.86,8.86,0,0,0-5.79,2.49L15,15.15a7.3,7.3,0,0,0,4-.76,9,9,0,0,0,.79-.46,6.89,6.89,0,0,1,2.45-1.11l.51-.11a6.38,6.38,0,0,1-.26,6l-.35.6,1.73-.83a6.45,6.45,0,0,0,3.27-3.65l.45-1.31s4.54,4.15,5.26,7Zm0,0" transform="translate(-3.7 -4.35)"/><path class="cls-4" d="M29.08,44.34a13.89,13.89,0,0,1-15,3.87L13,47.81A13,13,0,0,1,4.75,31.93a13,13,0,0,0,7.7,17.41l1.14.39a13.86,13.86,0,0,0,17.94-9.32,14.09,14.09,0,0,1-2.45,3.93Zm0,0" transform="translate(-3.7 -4.35)"/></g><path class="cls-6" d="M14.7,35.58a4,4,0,1,1-2.47-5.15,4,4,0,0,1,2.47,5.15Zm0,0" transform="translate(-3.7 -4.35)"/><path class="cls-6" d="M15.58,28.18a1.62,1.62,0,1,1-1-2.06,1.61,1.61,0,0,1,1,2.06Zm0,0" transform="translate(-3.7 -4.35)"/><path class="cls-7" d="M30.36,5.54c-.08.21-.82.15-1.66-.15s-1.47-.7-1.39-.91.81-.15,1.66.15,1.46.7,1.39.91Zm0,0" transform="translate(-3.7 -4.35)"/><path class="cls-7" d="M22.6,18.47c-.05.09-.09.18-.15.27l-.35.6,1.73-.83a6.45,6.45,0,0,0,3.27-3.65l.26-.77a6.39,6.39,0,0,1-3.26,3.66Zm0,0" transform="translate(-3.7 -4.35)"/><path class="cls-7" d="M23,12l-.52.11A6.8,6.8,0,0,0,20,13.17a7.28,7.28,0,0,1-4.22,1.22l-.78.76a7.4,7.4,0,0,0,4.73-1.22,7,7,0,0,1,2.45-1.12l.52-.1a6.34,6.34,0,0,1,.39,4.51A6.38,6.38,0,0,0,23,12Zm0,0" transform="translate(-3.7 -4.35)"/><path class="cls-7" d="M27.82,12.79l-.27.76s4.54,4.15,5.26,7l-.15-1.83c-1.34-2.69-4.84-5.9-4.84-5.9Zm0,0" transform="translate(-3.7 -4.35)"/></g></g></g></svg>