<svg xmlns="http://www.w3.org/2000/svg" xmlns:xlink="http://www.w3.org/1999/xlink" viewBox="0 0 100.1 118.43"><defs><style>.cls-1,.cls-4{fill:#008026;}.cls-1,.cls-5{stroke:#008026;stroke-miterlimit:10;}.cls-2{fill:url(#Dégradé_sans_nom_21);}.cls-3{fill:url(#Dégradé_sans_nom_21-2);}.cls-5{fill:none;stroke-linecap:round;stroke-width:2.27px;}</style><linearGradient id="Dégradé_sans_nom_21" x1="25.33" y1="36.09" x2="95.6" y2="36.09" gradientUnits="userSpaceOnUse"><stop offset="0.14" stop-color="#008026"/><stop offset="1" stop-color="#00c939"/></linearGradient><linearGradient id="Dégradé_sans_nom_21-2" x1="25.11" y1="93.32" x2="99.59" y2="93.32" xlink:href="#Dégradé_sans_nom_21"/></defs><g id="Calque_2" data-name="Calque 2"><g id="Calque_1-2" data-name="Calque 1"><path class="cls-1" d="M41.4,91.53,25,69.71v31.36H12.77V27.45q0-6.94-1.91-10.29C9.59,14.93,7,13.82,3.23,13.82H.5V11.09H12.77q5,0,7.57,1.3A7.53,7.53,0,0,1,24,17.09C24.68,19.36,25,22.82,25,27.45V67.67l17-21.81a27,27,0,0,1,7.5-6.62A20.5,20.5,0,0,1,59.8,37h4.09a18.17,18.17,0,0,1,2.84.37,18.77,18.77,0,0,1,3.11.93,11.33,11.33,0,0,1-5.7,1.75,32.51,32.51,0,0,0-3.3.62,25.32,25.32,0,0,0-4,1.23,15.14,15.14,0,0,0-5.87,4.64L36,65.63,53,87.44a39.71,39.71,0,0,0,7.43,7.77A17.21,17.21,0,0,0,68,98.48q1.45.27,3.09.45c.94.11,1.84.18,2.7.23a16.46,16.46,0,0,1-2.85,1.4,16.81,16.81,0,0,1-2.8.8,29.78,29.78,0,0,1-3.34.73,21.88,21.88,0,0,1-3.61.34Q49.58,102.43,41.4,91.53Z"/><path class="cls-2" d="M28.92,62.6a39.4,39.4,0,0,1,9-34.94c9.14-10.15,22.77-13.31,35.48-16.57,7.52-1.93,15-4,22-7.56L92.56,1.35l-8,21.32c-2.55,6.8-5,13.66-7.71,20.4-2.34,5.83-5.22,11.65-9.74,16.12a32.5,32.5,0,0,1-32.57,7.54c-2.35-.78-3.37,2.94-1,3.72a36.49,36.49,0,0,0,33.87-6.36C72.49,60,76,54.38,78.7,48.48c3-6.7,5.42-13.73,8-20.61L96.27,2.38C96.91.69,94.81-.49,93.44.2,80.8,6.65,66.33,7.85,53.22,13.06a47.86,47.86,0,0,0-17.41,11.2A43.52,43.52,0,0,0,26,41.38a42.23,42.23,0,0,0-.74,22.25c.58,2.41,4.3,1.39,3.71-1Z"/><path class="cls-3" d="M45.84,72.17a33.62,33.62,0,0,1,20.5,4.92c4.17,2.64,7.11,6.54,10.14,10.36,2.2,2.77,4.07,6,6.69,8.36,4,3.66,9.24,5.59,14.5,6.61l-.85-3.22c-5.78,5.09-12,10-19.45,12.72a45.77,45.77,0,0,1-19.66,2.47l-1.32-.14-.19,0-.52-.08c-.31,0-.62-.11-.92-.18a39.46,39.46,0,0,1-8.07-2.7c-5.95-2.7-11.59-6.69-15.17-12.25-4.75-7.39-4.82-16.51-1.35-24.45a2,2,0,0,0-.69-2.63,1.93,1.93,0,0,0-2.63.69c-3.48,7.95-4.15,16.81-.54,24.85,3,6.78,8.89,12,15.32,15.56A41.33,41.33,0,0,0,55.44,118,48.9,48.9,0,0,0,75,116.71c9.44-2.56,17.35-8.41,24.58-14.79a1.94,1.94,0,0,0-.85-3.22c-4.54-.88-9.21-2.38-12.71-5.54-2.66-2.4-4.43-5.48-6.77-8.43C76.11,80.82,73.1,77,68.92,74.18A35.53,35.53,0,0,0,55.77,69a36.76,36.76,0,0,0-9.93-.64c-2.45.21-2.47,4.06,0,3.86Z"/><path class="cls-4" d="M29.15,64.74,28.56,63a1.72,1.72,0,0,0-.69-.9,1,1,0,0,0-.56-.17,1.11,1.11,0,0,0-.6,0,1.5,1.5,0,0,0-.89.69,1.52,1.52,0,0,0-.15,1.16l.59,1.71a1.14,1.14,0,0,0,.27.51,1.34,1.34,0,0,0,1,.57,1.22,1.22,0,0,0,.6,0,1.5,1.5,0,0,0,.89-.69,1.45,1.45,0,0,0,.15-1.15Z"/><path class="cls-5" d="M38.46,51.6c-.92-5-.52-11.09,2.2-15.75"/><path class="cls-5" d="M39.21,60a27.3,27.3,0,0,0,16.54-5.07"/><path class="cls-5" d="M48,41.7c.88-3.25,2.89-7.52,5.61-9.5"/><path class="cls-5" d="M47.48,50a28.51,28.51,0,0,0,10.41-3.26"/><path class="cls-5" d="M34.26,79.75c-.23,2-.36,4-.41,5.94a18.84,18.84,0,0,0,.24,4c.57,3,2.31,5.55,4,8"/><path class="cls-5" d="M46.62,80a12.52,12.52,0,0,1,10,3.42"/><path class="cls-5" d="M44.27,92.9a16.19,16.19,0,0,0,1.88,10.47"/><path class="cls-5" d="M54,89.58a13.41,13.41,0,0,1,5,.91,13.57,13.57,0,0,1,3.35,1.9"/><path class="cls-4" d="M53.32,99.94a10.09,10.09,0,0,0,6.17,6.65,1.5,1.5,0,0,0,1.84-1,1.53,1.53,0,0,0-1-1.84,2.34,2.34,0,0,0-.24-.09c.43.15.15.06.06,0l-.41-.2a8.3,8.3,0,0,1-.81-.49l-.17-.12-.08-.06c.2.16,0,0,0,0l-.19-.17c-.24-.21-.46-.43-.68-.66l-.3-.35c-.07-.08-.2-.31,0,0a1.77,1.77,0,0,0-.12-.17,7.68,7.68,0,0,1-.51-.8c-.08-.13-.15-.27-.22-.41s-.07-.14-.1-.22,0,0,0,.09c-.11-.31-.23-.62-.32-.94a1.5,1.5,0,0,0-2.89.8Z"/></g></g></svg>