<svg xmlns="http://www.w3.org/2000/svg" xmlns:xlink="http://www.w3.org/1999/xlink" viewBox="0 0 31.72 46.85"><defs><style>.cls-1{fill:none;}.cls-2{fill:#d61919;}.cls-3{fill:#e81b1b;}.cls-4{clip-path:url(#clip-path);}.cls-5{fill:#548513;}.cls-6{fill:#526b2f;}.cls-7{fill:#587a29;}.cls-8{fill:#f23d3d;}</style><clipPath id="clip-path" transform="translate(-0.04 0)"><rect class="cls-1" width="31.77" height="46.85"/></clipPath></defs><g id="Calque_2" data-name="Calque 2"><g id="Utilisés"><g id="Poivron"><path class="cls-2" d="M17.92,10.79a2.23,2.23,0,0,0,2.23,2.13H21a4.87,4.87,0,0,1,5.54-2.24c-.63-1.94-1.61-3.41-3.76-3.41-2.31,0-4.16,2.15-4.85,2.53v.7Zm0,0" transform="translate(-0.04 0)"/><path class="cls-2" d="M10.63,12.67a7.73,7.73,0,0,0,3.22,1.26V9.8C13.17,9.42,11.31,7.27,9,7.27S5.87,8.74,5.24,10.69a4.84,4.84,0,0,1,5.39,2Zm0,0" transform="translate(-0.04 0)"/><path class="cls-3" d="M18,11.34c.76-.52,2.54-2.46,4.73-2.46a3.3,3.3,0,0,1,3,1.66,4.37,4.37,0,0,1,.79.14c-.63-1.94-1.61-3.41-3.76-3.41-2.31,0-4.16,2.15-4.85,2.53v.7l0,.29a2.05,2.05,0,0,0,.1.55Zm0,0" transform="translate(-0.04 0)"/><g class="cls-4"><path class="cls-3" d="M9,7.27c-2.16,0-3.14,1.47-3.77,3.42a5.13,5.13,0,0,1,.66-.13A3.35,3.35,0,0,1,9,8.68c2.3,0,4.16,2.16,4.84,2.53V9.8C13.17,9.42,11.31,7.27,9,7.27Zm0,0" transform="translate(-0.04 0)"/><path class="cls-2" d="M31.67,17.7a7.78,7.78,0,0,0-3.57-6.33,6.08,6.08,0,0,0-1.59-.69A4.87,4.87,0,0,0,21,12.92c-6.57,2.77-10.34-.25-10.34-.25a4.84,4.84,0,0,0-5.39-2,6.09,6.09,0,0,0-1.67.74A7.76,7.76,0,0,0,.1,17.66C-.54,31.23,3.51,46.85,12.25,46.85a4.84,4.84,0,0,0,4-2.14h0a4.84,4.84,0,0,0,4,2.14A6.81,6.81,0,0,0,23.57,46c6.29-3.37,8.67-16.6,8.1-28.33Zm0,0" transform="translate(-0.04 0)"/><path class="cls-5" d="M21,12.92h-.82a2.23,2.23,0,0,1-2.23-2.13l0-.29V8.88a4,4,0,0,1,4-4c-.89,0-1.61-1.09-1.61-2.43S21.05,0,21.94,0a8.07,8.07,0,0,0-8.07,8.08V10.5a2.26,2.26,0,0,1-.72,1.64,2.23,2.23,0,0,1-1.7.59l-.82-.06s3.77,3,10.34.25Zm0,0" transform="translate(-0.04 0)"/><path class="cls-3" d="M22,12.12c3.26,0,7.19,1.61,7.19,5.65,0,0,.81,14.54-1.4,23.62,3.12-5.74,4.28-15.12,3.86-23.69a7.78,7.78,0,0,0-3.57-6.33,6.08,6.08,0,0,0-1.59-.69,4.85,4.85,0,0,0-5,1.47l.48,0Zm0,0" transform="translate(-0.04 0)"/><path class="cls-3" d="M2.56,19.38c0-6.46,4.4-7.25,7.65-7.26a4.86,4.86,0,0,0-5-1.43,6.09,6.09,0,0,0-1.67.74A7.76,7.76,0,0,0,.1,17.66C-.33,27,1.43,37.2,5.39,42.74,1.75,31.5,2.56,19.38,2.56,19.38Zm0,0" transform="translate(-0.04 0)"/></g><path class="cls-6" d="M18.84,12.48a11,11,0,0,1-6.18,0,2.3,2.3,0,0,1-1.21.25l-.82-.06s3.77,3,10.34.25h-.82a2.15,2.15,0,0,1-1.31-.44Zm0,0" transform="translate(-0.04 0)"/><path class="cls-6" d="M20.67,3.9A4,4,0,0,0,17.9,7.72V8.88a4,4,0,0,1,4-4,1.51,1.51,0,0,1-1.27-.95Zm0,0" transform="translate(-0.04 0)"/><g class="cls-4"><path class="cls-7" d="M23.56,2.42c0,1.34-.73,2.43-1.62,2.43s-1.61-1.09-1.61-2.43S21.05,0,21.94,0s1.62,1.08,1.62,2.42Zm0,0" transform="translate(-0.04 0)"/><path class="cls-3" d="M26.79,17.89c0-2.74-3-5-5.66-5-1.68,0-4,2-4.84,3.31-.87-1.34-3.16-3.31-4.85-3.31-2.67,0-5.65,2.23-5.65,5,0,0,.09,24.38,3.23,28.13v0a6.85,6.85,0,0,0,3.23.81,4.84,4.84,0,0,0,4-2.19h0a4.81,4.81,0,0,0,4,2.19A6.69,6.69,0,0,0,23.57,46c4.83-5.81,3.22-28.12,3.22-28.12Zm0,0" transform="translate(-0.04 0)"/></g><path class="cls-8" d="M22.43,15.6a1.46,1.46,0,0,1,.86,1.83,1.45,1.45,0,0,1-2,.31,1.45,1.45,0,0,1-.86-1.83,1.45,1.45,0,0,1,2-.31Zm0,0" transform="translate(-0.04 0)"/><path class="cls-8" d="M25.09,18.68a.81.81,0,1,1-.8-.81.8.8,0,0,1,.8.81Zm0,0" transform="translate(-0.04 0)"/><path class="cls-8" d="M12.14,15.89a1.46,1.46,0,0,1-.86,1.83,1.45,1.45,0,0,1-2-.32,1.44,1.44,0,0,1,.85-1.82,1.46,1.46,0,0,1,2,.31Zm0,0" transform="translate(-0.04 0)"/><path class="cls-8" d="M9.1,18.68a.81.81,0,1,1-.81-.81.8.8,0,0,1,.81.81Zm0,0" transform="translate(-0.04 0)"/><path class="cls-2" d="M16.27,44.66h0a5.38,5.38,0,0,0,.72.86,1,1,0,0,0,.07-.33V15.24a7.61,7.61,0,0,0-.81,1,7.61,7.61,0,0,0-.81-1V45.19a.71.71,0,0,0,.07.32,4.91,4.91,0,0,0,.72-.85Zm0,0" transform="translate(-0.04 0)"/></g></g></g></svg>